#!OML:ASF I:\golf\golf\golf 2\Subject 1\2002-09-07\Subject1.ASF
:FULLY-SPECIFIED
:DEGREES
32
root -11.0846 17.8765 4.70299 -8.15614 82.7858 -27.1208
lowerback 4.85476 1.51081 -2.17264
upperback 5.37133 2.0566 4.00608
thorax 2.61039 0.952456 5.3254
lowerneck -13.3207 -1.1283 1.44281
upperneck 41.1859 2.11947 -5.01459
head 17.4529 0.995956 -1.9937
rclavicle 8.74653e-015 -2.70347e-014
rhumerus -13.0351 24.2068 -98.8976
rradius 45.6755
rwrist -50.466
rhand -27.7637 -8.3551
rfingers 7.12502
rthumb -1.15764 -38.3317
lclavicle 8.74653e-015 -2.70347e-014
lhumerus -9.62483 -44.3272 105.433
lradius 44.6528
lwrist 51.1726
lhand -13.2862 67.4382
lfingers 7.12502
lthumb -167.183 82.9752
rfemur -35.7864 -2.79304 16.0335
rtibia 31.4188
rfoot -8.58796 -4.80221
rtoes -7.57496
lfemur -33.802 5.90401 -10.4183
ltibia 27.8655
lfoot -9.09424 -1.55235
ltoes -19.3937
33
root -11.0836 17.8776 4.70224 -8.33393 82.7759 -27.2973
lowerback 4.86632 1.49442 -2.17614
upperback 5.37828 2.03504 4.03149
thorax 2.61273 0.94128 5.35472
lowerneck -13.3481 -1.12836 1.39565
upperneck 41.2044 2.13615 -5.01448
head 17.4718 0.994911 -1.98289
rclavicle 2.38542e-014 2.3059e-014
rhumerus -13.0808 24.3738 -98.8606
rradius 45.7532
rwrist -50.5954
rhand -27.7967 -8.36266
rfingers 7.12502
rthumb -1.18961 -38.3391
lclavicle 2.38542e-014 2.3059e-014
lhumerus -9.57496 -44.3294 105.39
lradius 44.6539
lwrist 51.3042
lhand -13.2947 67.3957
lfingers 7.12502
lthumb -167.191 83.0173
rfemur -35.7826 -2.74682 16.0423
rtibia 31.4205
rfoot -8.59813 -4.81598
rtoes -7.51842
lfemur -33.7797 5.9063 -10.3854
ltibia 27.853
lfoot -9.08889 -1.6143
ltoes -18.2028
34
root -11.0831 17.8781 4.7016 -8.32978 82.772 -27.2655
lowerback 4.90219 1.49188 -2.1489
upperback 5.39769 2.03284 4.01381
thorax 2.61445 0.941329 5.32008
lowerneck -13.3664 -1.12233 1.42385
upperneck 41.1924 2.13739 -5.02635
head 17.47 0.997109 -1.99328
rclavicle -3.18055e-015 -7.15625e-015
rhumerus -13.1044 24.4508 -98.8542
rradius 45.8133
rwrist -50.6884
rhand -27.8277 -8.35605
rfingers 7.12502
rthumb -1.21952 -38.3323
lclavicle -3.18055e-015 -7.15625e-015
lhumerus -9.53831 -44.4253 105.313
lradius 44.6614
lwrist 51.3139
lhand -13.1941 67.3339
lfingers 7.12502
lthumb -167.094 83.0852
rfemur -35.7446 -2.68522 16.0181
rtibia 31.4199
rfoot -8.59619 -4.91875
rtoes -7.54299
lfemur -33.7359 5.89203 -10.3841
ltibia 27.8469
lfoot -9.09163 -1.60446
ltoes -17.4004
35
root -11.0825 17.8781 4.70111 -7.98622 82.765 -26.9172
lowerback 4.92794 1.51763 -2.15039
upperback 5.38844 2.06665 3.97762
thorax 2.58775 0.959195 5.28059
lowerneck -13.3578 -1.14529 1.52266
upperneck 41.2083 2.11095 -5.1114
head 17.4772 0.992073 -2.05548
rclavicle -8.74653e-015 9.54166e-015
rhumerus -13.1161 24.3601 -98.8634
rradius 45.8118
rwrist -50.6876
rhand -27.8288 -8.35447
rfingers 7.12502
rthumb -1.22052 -38.3307
lclavicle -8.74653e-015 9.54166e-015
lhumerus -9.58873 -44.536 105.309
lradius 44.6693
lwrist 51.1564
lhand -13.0771 67.36
lfingers 7.12502
lthumb -166.981 83.0663
rfemur -35.7322 -2.66848 15.9759
rtibia 31.4162
rfoot -8.57219 -4.97494
rtoes -8.1874
lfemur -33.7244 5.86509 -10.4247
ltibia 27.8517
lfoot -9.1254 -1.49713
ltoes -17.7531
36
root -11.0812 17.878 4.70039 -7.67574 82.7681 -26.6107
lowerback 4.94367 1.53734 -2.12412
upperback 5.36789 2.09296 3.93561
thorax 2.55662 0.974375 5.21939
lowerneck -13.3655 -1.17579 1.55229
upperneck 41.2595 2.07341 -5.13045
head 17.5068 0.981106 -2.07768
rclavicle -1.86858e-014 9.54166e-015
rhumerus -13.1324 24.2327 -98.8929
rradius 45.7893
rwrist -50.6157
rhand -27.8492 -8.36377
rfingers 7.12502
rthumb -1.24024 -38.3399
lclavicle -1.86858e-014 9.54166e-015
lhumerus -9.66653 -44.612 105.335
lradius 44.6911
lwrist 51.0894
lhand -13.1066 67.4004
lfingers 7.12502
lthumb -167.01 83.024
rfemur -35.7328 -2.70143 15.9484
rtibia 31.422
rfoot -8.55887 -4.96455
rtoes -8.66537
lfemur -33.7246 5.88003 -10.4763
ltibia 27.8515
lfoot -9.14128 -1.47716
ltoes -17.8337
37
root -11.0799 17.8779 4.69955 -7.52097 82.7851 -26.4516
lowerback 4.97726 1.5176 -2.09932
upperback 5.35308 2.06702 3.908
thorax 2.52665 0.963215 5.17563
lowerneck -13.3799 -1.17887 1.53352
upperneck 41.2963 2.07674 -5.12095
head 17.532 0.981317 -2.07048
rclavicle 1.94809e-014 4.37326e-014
rhumerus -13.1713 24.2206 -98.9487
rradius 45.7727
rwrist -50.5651
rhand -27.8065 -8.35764
rfingers 7.12502
rthumb -1.19903 -38.334
lclavicle 1.94809e-014 4.37326e-014
lhumerus -9.69437 -44.5892 105.332
lradius 44.7006
lwrist 51.2138
lhand -13.141 67.4091
lfingers 7.12502
lthumb -167.043 83.0132
rfemur -35.7433 -2.81502 15.952
rtibia 31.4424
rfoot -8.55589 -4.8558
rtoes -8.66029
lfemur -33.7104 5.88237 -10.5136
ltibia 27.8334
lfoot -9.18238 -1.47443
ltoes -18.1193
38
root -11.0792 17.8779 4.69985 -7.51292 82.7954 -26.4425
lowerback 5.01228 1.51035 -2.07507
upperback 5.3356 2.05785 3.90009
thorax 2.49073 0.960386 5.15222
lowerneck -13.361 -1.18572 1.49333
upperneck 41.3066 2.07256 -5.09715
head 17.5321 0.977305 -2.05291
rclavicle 7.95139e-016 -1.51076e-014
rhumerus -13.216 24.2055 -98.9845
rradius 45.7548
rwrist -50.5814
rhand -27.7095 -8.29285
rfingers 7.12502
rthumb -1.10538 -38.2697
lclavicle 7.95139e-016 -1.51076e-014
lhumerus -9.71708 -44.53 105.373
lradius 44.6891
lwrist 51.3001
lhand -13.1509 67.4358
lfingers 7.12502
lthumb -167.052 82.9859
rfemur -35.7564 -2.82947 15.9436
rtibia 31.4666
rfoot -8.61251 -4.7601
rtoes -7.96281
lfemur -33.6931 5.84765 -10.5099
ltibia 27.807
lfoot -9.18062 -1.43051
ltoes -18.2502
